<?xml version="1.0" encoding="UTF-8"?>
<svg width="26px" height="26px" viewBox="0 0 26 26" version="1.1" xmlns="http://www.w3.org/2000/svg" xmlns:xlink="http://www.w3.org/1999/xlink">
    <!-- Generator: Sketch 49.3 (51167) - http://www.bohemiancoding.com/sketch -->
    <title>以图搜图@2x</title>
    <desc>Created with Sketch.</desc>
    <defs>
        <rect id="path-1" x="0" y="0" width="26" height="26"></rect>
        <rect id="path-2" x="19.7848503" y="15.9962789" width="1.33714286" height="3.56571429" rx="0.668571429"></rect>
    </defs>
    <g id="Page-1" stroke="none" stroke-width="1" fill="none" fill-rule="evenodd">
        <g id="icon" transform="translate(-17.000000, -22.000000)">
            <g id="以图搜图" transform="translate(17.000000, 22.000000)">
                <g id="Rectangle-28" opacity="0">
                    <use fill="#D8D8D8" fill-rule="evenodd" xlink:href="#path-1"></use>
                    <rect stroke="#979797" stroke-width="1" x="0.5" y="0.5" width="25" height="25"></rect>
                </g>
                <rect id="Rectangle-28" fill="#D8D8D8" opacity="0" x="0" y="0" width="26" height="26"></rect>
                <g id="Group-30" transform="translate(2.000000, 3.000000)">
                    <path d="M11.9048823,17.5 C12.219812,18.0620695 12.6225909,18.5682684 13.0946225,19 L3,19 C1.34314575,19 1.09108455e-15,17.6568542 8.8817842e-16,16 L0,3 C-2.02906125e-16,1.34314575 1.34314575,3.04359188e-16 3,0 L18.4285714,0 C20.0854257,-3.04359188e-16 21.4285714,1.34314575 21.4285714,3 L21.4285714,10.3723005 C20.9917925,9.92657197 20.4860341,9.54869303 19.9285714,9.25593903 L19.9285714,3 C19.9285714,2.17157288 19.2569986,1.5 18.4285714,1.5 L3,1.5 C2.17157288,1.5 1.5,2.17157288 1.5,3 L1.5,8.22988155 C2.4743081,8.34894835 3.34054646,8.48953924 4.09952731,8.65211509 C4.54409998,8.74734381 4.99529806,8.92291534 5.48040228,9.17563024 C5.94442284,9.41736161 6.34636933,9.6704405 7.07792693,10.161742 C7.74735039,10.6113152 7.91964694,10.7245432 8.21715153,10.9028716 C8.94410098,11.3386153 10.0288543,11.6277198 11.4673218,11.7508346 L11.8294119,11.781825 C11.5900054,12.236891 11.4073461,12.7264677 11.2908434,13.2411459 C9.6669015,13.0975797 8.3865978,12.7532736 7.4459623,12.1894435 C7.11711621,11.9923285 6.93612274,11.8733852 6.24164331,11.4069848 C5.55496344,10.9458224 5.18681624,10.7140247 4.78737889,10.5059379 C4.41309565,10.3109552 4.08353566,10.1827158 3.78534992,10.1188436 C3.1194851,9.97621349 2.35748177,9.85029648 1.5,9.7414671 L1.5,16 C1.5,16.8284271 2.17157288,17.5 3,17.5 L11.9048823,17.5 Z M15.1542857,4.68 C15.1542857,4.28190406 15.3666674,3.91404824 15.7114286,3.71500027 C16.0561898,3.51595229 16.4809531,3.51595229 16.8257143,3.71500027 C17.1704755,3.91404824 17.3828572,4.28190406 17.3828571,4.68 C17.3828572,5.07809594 17.1704755,5.44595176 16.8257143,5.64499973 C16.4809531,5.84404771 16.0561898,5.84404771 15.7114286,5.64499973 C15.3666674,5.44595176 15.1542857,5.07809594 15.1542857,4.68 Z" id="Rectangle-5" fill="#979797" fill-rule="nonzero"></path>
                    <circle id="Oval-5" stroke="#979797" stroke-width="1.5" cx="16.9371429" cy="14.2628571" r="3.56571429"></circle>
                    <g id="Rectangle-22" transform="translate(20.453422, 17.779136) scale(-1, 1) rotate(45.000000) translate(-20.453422, -17.779136) ">
                        <use fill="#D8D8D8" fill-rule="evenodd" xlink:href="#path-2"></use>
                        <rect stroke="#979797" stroke-width="1.5" x="20.5348503" y="16.7462789" width="1" height="2.06571429" rx="0.5"></rect>
                    </g>
                </g>
            </g>
        </g>
    </g>
</svg>